<mxfile host="app.diagrams.net" modified="2023-04-14T00:10:51.236Z" agent="Mozilla/5.0 (Windows NT 10.0; Win64; x64) AppleWebKit/537.36 (KHTML, like Gecko) Chrome/111.0.0.0 Safari/537.36" etag="J2EJZRR2UpVe4CKS7b2_" version="21.1.6" type="device">
  <diagram name="Página-1" id="ugy9R8QUqL7VcsIxUnH7">
    <mxGraphModel dx="880" dy="427" grid="1" gridSize="10" guides="1" tooltips="1" connect="1" arrows="1" fold="1" page="1" pageScale="1" pageWidth="827" pageHeight="1169" math="0" shadow="0">
      <root>
        <mxCell id="0" />
        <mxCell id="1" parent="0" />
        <mxCell id="lpc0poG3Ya0TQtmMI8_p-15" style="edgeStyle=orthogonalEdgeStyle;rounded=0;orthogonalLoop=1;jettySize=auto;html=1;entryX=0;entryY=0.5;entryDx=0;entryDy=0;endArrow=none;endFill=0;" edge="1" parent="1" source="lpc0poG3Ya0TQtmMI8_p-1" target="lpc0poG3Ya0TQtmMI8_p-8">
          <mxGeometry relative="1" as="geometry" />
        </mxCell>
        <mxCell id="lpc0poG3Ya0TQtmMI8_p-1" value="CLINICA&lt;span style=&quot;white-space: pre;&quot;&gt;	&lt;/span&gt;" style="rounded=0;whiteSpace=wrap;html=1;" vertex="1" parent="1">
          <mxGeometry x="70" y="90" width="120" height="60" as="geometry" />
        </mxCell>
        <mxCell id="lpc0poG3Ya0TQtmMI8_p-36" style="edgeStyle=orthogonalEdgeStyle;shape=connector;rounded=0;orthogonalLoop=1;jettySize=auto;html=1;labelBackgroundColor=default;strokeColor=default;fontFamily=Helvetica;fontSize=11;fontColor=default;endArrow=none;endFill=0;" edge="1" parent="1" source="lpc0poG3Ya0TQtmMI8_p-2" target="lpc0poG3Ya0TQtmMI8_p-11">
          <mxGeometry relative="1" as="geometry" />
        </mxCell>
        <mxCell id="lpc0poG3Ya0TQtmMI8_p-2" value="VETERINARIO" style="rounded=0;whiteSpace=wrap;html=1;" vertex="1" parent="1">
          <mxGeometry x="374" y="90" width="120" height="60" as="geometry" />
        </mxCell>
        <mxCell id="lpc0poG3Ya0TQtmMI8_p-19" style="edgeStyle=orthogonalEdgeStyle;rounded=0;orthogonalLoop=1;jettySize=auto;html=1;entryX=1;entryY=0.5;entryDx=0;entryDy=0;endArrow=none;endFill=0;" edge="1" parent="1" source="lpc0poG3Ya0TQtmMI8_p-3" target="lpc0poG3Ya0TQtmMI8_p-13">
          <mxGeometry relative="1" as="geometry">
            <Array as="points">
              <mxPoint x="720" y="290" />
            </Array>
          </mxGeometry>
        </mxCell>
        <mxCell id="lpc0poG3Ya0TQtmMI8_p-3" value="ATENDIMENTO" style="rounded=0;whiteSpace=wrap;html=1;" vertex="1" parent="1">
          <mxGeometry x="660" y="90" width="120" height="60" as="geometry" />
        </mxCell>
        <mxCell id="lpc0poG3Ya0TQtmMI8_p-37" style="edgeStyle=orthogonalEdgeStyle;shape=connector;rounded=0;orthogonalLoop=1;jettySize=auto;html=1;labelBackgroundColor=default;strokeColor=default;fontFamily=Helvetica;fontSize=11;fontColor=default;endArrow=none;endFill=0;" edge="1" parent="1" source="lpc0poG3Ya0TQtmMI8_p-4" target="lpc0poG3Ya0TQtmMI8_p-10">
          <mxGeometry relative="1" as="geometry" />
        </mxCell>
        <mxCell id="lpc0poG3Ya0TQtmMI8_p-38" style="edgeStyle=orthogonalEdgeStyle;shape=connector;rounded=0;orthogonalLoop=1;jettySize=auto;html=1;labelBackgroundColor=default;strokeColor=default;fontFamily=Helvetica;fontSize=11;fontColor=default;endArrow=none;endFill=0;" edge="1" parent="1" source="lpc0poG3Ya0TQtmMI8_p-4" target="lpc0poG3Ya0TQtmMI8_p-12">
          <mxGeometry relative="1" as="geometry" />
        </mxCell>
        <mxCell id="lpc0poG3Ya0TQtmMI8_p-4" value="PET" style="rounded=0;whiteSpace=wrap;html=1;" vertex="1" parent="1">
          <mxGeometry x="354" y="250" width="120" height="60" as="geometry" />
        </mxCell>
        <mxCell id="lpc0poG3Ya0TQtmMI8_p-5" value="DONO" style="rounded=0;whiteSpace=wrap;html=1;" vertex="1" parent="1">
          <mxGeometry x="70" y="250" width="120" height="60" as="geometry" />
        </mxCell>
        <mxCell id="lpc0poG3Ya0TQtmMI8_p-41" style="edgeStyle=orthogonalEdgeStyle;shape=connector;rounded=0;orthogonalLoop=1;jettySize=auto;html=1;labelBackgroundColor=default;strokeColor=default;fontFamily=Helvetica;fontSize=11;fontColor=default;endArrow=none;endFill=0;" edge="1" parent="1" source="lpc0poG3Ya0TQtmMI8_p-6" target="lpc0poG3Ya0TQtmMI8_p-9">
          <mxGeometry relative="1" as="geometry" />
        </mxCell>
        <mxCell id="lpc0poG3Ya0TQtmMI8_p-6" value="RAÇA" style="rounded=0;whiteSpace=wrap;html=1;" vertex="1" parent="1">
          <mxGeometry x="354" y="440" width="120" height="60" as="geometry" />
        </mxCell>
        <mxCell id="lpc0poG3Ya0TQtmMI8_p-7" value="TIPO PET" style="rounded=0;whiteSpace=wrap;html=1;" vertex="1" parent="1">
          <mxGeometry x="70" y="440" width="120" height="60" as="geometry" />
        </mxCell>
        <mxCell id="lpc0poG3Ya0TQtmMI8_p-16" style="edgeStyle=orthogonalEdgeStyle;rounded=0;orthogonalLoop=1;jettySize=auto;html=1;endArrow=none;endFill=0;" edge="1" parent="1" source="lpc0poG3Ya0TQtmMI8_p-8" target="lpc0poG3Ya0TQtmMI8_p-2">
          <mxGeometry relative="1" as="geometry" />
        </mxCell>
        <mxCell id="lpc0poG3Ya0TQtmMI8_p-8" value="POSSUI" style="rhombus;whiteSpace=wrap;html=1;" vertex="1" parent="1">
          <mxGeometry x="240" y="80" width="80" height="80" as="geometry" />
        </mxCell>
        <mxCell id="lpc0poG3Ya0TQtmMI8_p-42" style="edgeStyle=orthogonalEdgeStyle;shape=connector;rounded=0;orthogonalLoop=1;jettySize=auto;html=1;labelBackgroundColor=default;strokeColor=default;fontFamily=Helvetica;fontSize=11;fontColor=default;endArrow=none;endFill=0;" edge="1" parent="1" source="lpc0poG3Ya0TQtmMI8_p-9" target="lpc0poG3Ya0TQtmMI8_p-7">
          <mxGeometry relative="1" as="geometry" />
        </mxCell>
        <mxCell id="lpc0poG3Ya0TQtmMI8_p-9" value="POSSUI" style="rhombus;whiteSpace=wrap;html=1;" vertex="1" parent="1">
          <mxGeometry x="240" y="430" width="80" height="80" as="geometry" />
        </mxCell>
        <mxCell id="lpc0poG3Ya0TQtmMI8_p-23" style="edgeStyle=orthogonalEdgeStyle;rounded=0;orthogonalLoop=1;jettySize=auto;html=1;endArrow=none;endFill=0;" edge="1" parent="1" source="lpc0poG3Ya0TQtmMI8_p-10" target="lpc0poG3Ya0TQtmMI8_p-5">
          <mxGeometry relative="1" as="geometry" />
        </mxCell>
        <mxCell id="lpc0poG3Ya0TQtmMI8_p-10" value="POSSUI" style="rhombus;whiteSpace=wrap;html=1;" vertex="1" parent="1">
          <mxGeometry x="240" y="240" width="80" height="80" as="geometry" />
        </mxCell>
        <mxCell id="lpc0poG3Ya0TQtmMI8_p-18" style="edgeStyle=orthogonalEdgeStyle;rounded=0;orthogonalLoop=1;jettySize=auto;html=1;entryX=0;entryY=0.5;entryDx=0;entryDy=0;endArrow=none;endFill=0;" edge="1" parent="1" source="lpc0poG3Ya0TQtmMI8_p-11" target="lpc0poG3Ya0TQtmMI8_p-3">
          <mxGeometry relative="1" as="geometry" />
        </mxCell>
        <mxCell id="lpc0poG3Ya0TQtmMI8_p-11" value="POSSUI" style="rhombus;whiteSpace=wrap;html=1;" vertex="1" parent="1">
          <mxGeometry x="530" y="80" width="80" height="80" as="geometry" />
        </mxCell>
        <mxCell id="lpc0poG3Ya0TQtmMI8_p-35" style="edgeStyle=orthogonalEdgeStyle;shape=connector;rounded=0;orthogonalLoop=1;jettySize=auto;html=1;labelBackgroundColor=default;strokeColor=default;fontFamily=Helvetica;fontSize=11;fontColor=default;endArrow=none;endFill=0;" edge="1" parent="1" source="lpc0poG3Ya0TQtmMI8_p-12" target="lpc0poG3Ya0TQtmMI8_p-6">
          <mxGeometry relative="1" as="geometry" />
        </mxCell>
        <mxCell id="lpc0poG3Ya0TQtmMI8_p-12" value="POSSUI" style="rhombus;whiteSpace=wrap;html=1;" vertex="1" parent="1">
          <mxGeometry x="374" y="330" width="80" height="80" as="geometry" />
        </mxCell>
        <mxCell id="lpc0poG3Ya0TQtmMI8_p-21" style="edgeStyle=orthogonalEdgeStyle;rounded=0;orthogonalLoop=1;jettySize=auto;html=1;entryX=1;entryY=0.5;entryDx=0;entryDy=0;endArrow=none;endFill=0;" edge="1" parent="1" source="lpc0poG3Ya0TQtmMI8_p-13" target="lpc0poG3Ya0TQtmMI8_p-4">
          <mxGeometry relative="1" as="geometry" />
        </mxCell>
        <mxCell id="lpc0poG3Ya0TQtmMI8_p-13" value="POSSUI" style="rhombus;whiteSpace=wrap;html=1;" vertex="1" parent="1">
          <mxGeometry x="540" y="240" width="80" height="80" as="geometry" />
        </mxCell>
        <mxCell id="lpc0poG3Ya0TQtmMI8_p-43" value="N" style="text;html=1;align=center;verticalAlign=middle;resizable=0;points=[];autosize=1;strokeColor=none;fillColor=none;fontSize=11;fontFamily=Helvetica;fontColor=default;" vertex="1" parent="1">
          <mxGeometry x="345" y="85" width="30" height="30" as="geometry" />
        </mxCell>
        <mxCell id="lpc0poG3Ya0TQtmMI8_p-44" value="1" style="text;html=1;align=center;verticalAlign=middle;resizable=0;points=[];autosize=1;strokeColor=none;fillColor=none;fontSize=11;fontFamily=Helvetica;fontColor=default;" vertex="1" parent="1">
          <mxGeometry x="190" y="85" width="30" height="30" as="geometry" />
        </mxCell>
        <mxCell id="lpc0poG3Ya0TQtmMI8_p-45" value="N" style="text;html=1;align=center;verticalAlign=middle;resizable=0;points=[];autosize=1;strokeColor=none;fillColor=none;fontSize=11;fontFamily=Helvetica;fontColor=default;" vertex="1" parent="1">
          <mxGeometry x="630" y="90" width="30" height="30" as="geometry" />
        </mxCell>
        <mxCell id="lpc0poG3Ya0TQtmMI8_p-46" value="1" style="text;html=1;align=center;verticalAlign=middle;resizable=0;points=[];autosize=1;strokeColor=none;fillColor=none;fontSize=11;fontFamily=Helvetica;fontColor=default;" vertex="1" parent="1">
          <mxGeometry x="494" y="90" width="30" height="30" as="geometry" />
        </mxCell>
        <mxCell id="lpc0poG3Ya0TQtmMI8_p-47" value="N" style="text;html=1;align=center;verticalAlign=middle;resizable=0;points=[];autosize=1;strokeColor=none;fillColor=none;fontSize=11;fontFamily=Helvetica;fontColor=default;" vertex="1" parent="1">
          <mxGeometry x="690" y="150" width="30" height="30" as="geometry" />
        </mxCell>
        <mxCell id="lpc0poG3Ya0TQtmMI8_p-48" value="1" style="text;html=1;align=center;verticalAlign=middle;resizable=0;points=[];autosize=1;strokeColor=none;fillColor=none;fontSize=11;fontFamily=Helvetica;fontColor=default;" vertex="1" parent="1">
          <mxGeometry x="474" y="250" width="30" height="30" as="geometry" />
        </mxCell>
        <mxCell id="lpc0poG3Ya0TQtmMI8_p-49" value="1" style="text;html=1;align=center;verticalAlign=middle;resizable=0;points=[];autosize=1;strokeColor=none;fillColor=none;fontSize=11;fontFamily=Helvetica;fontColor=default;" vertex="1" parent="1">
          <mxGeometry x="190" y="250" width="30" height="30" as="geometry" />
        </mxCell>
        <mxCell id="lpc0poG3Ya0TQtmMI8_p-50" value="N" style="text;html=1;align=center;verticalAlign=middle;resizable=0;points=[];autosize=1;strokeColor=none;fillColor=none;fontSize=11;fontFamily=Helvetica;fontColor=default;" vertex="1" parent="1">
          <mxGeometry x="324" y="250" width="30" height="30" as="geometry" />
        </mxCell>
        <mxCell id="lpc0poG3Ya0TQtmMI8_p-51" value="1" style="text;html=1;align=center;verticalAlign=middle;resizable=0;points=[];autosize=1;strokeColor=none;fillColor=none;fontSize=11;fontFamily=Helvetica;fontColor=default;" vertex="1" parent="1">
          <mxGeometry x="414" y="410" width="30" height="30" as="geometry" />
        </mxCell>
        <mxCell id="lpc0poG3Ya0TQtmMI8_p-52" value="N" style="text;html=1;align=center;verticalAlign=middle;resizable=0;points=[];autosize=1;strokeColor=none;fillColor=none;fontSize=11;fontFamily=Helvetica;fontColor=default;" vertex="1" parent="1">
          <mxGeometry x="424" y="310" width="30" height="30" as="geometry" />
        </mxCell>
        <mxCell id="lpc0poG3Ya0TQtmMI8_p-53" value="1" style="text;html=1;align=center;verticalAlign=middle;resizable=0;points=[];autosize=1;strokeColor=none;fillColor=none;fontSize=11;fontFamily=Helvetica;fontColor=default;" vertex="1" parent="1">
          <mxGeometry x="190" y="440" width="30" height="30" as="geometry" />
        </mxCell>
        <mxCell id="lpc0poG3Ya0TQtmMI8_p-54" value="N" style="text;html=1;align=center;verticalAlign=middle;resizable=0;points=[];autosize=1;strokeColor=none;fillColor=none;fontSize=11;fontFamily=Helvetica;fontColor=default;" vertex="1" parent="1">
          <mxGeometry x="324" y="440" width="30" height="30" as="geometry" />
        </mxCell>
      </root>
    </mxGraphModel>
  </diagram>
</mxfile>
